<svg version="1.1" id="Layer_1" xmlns="http://www.w3.org/2000/svg" xmlns:xlink="http://www.w3.org/1999/xlink" x="0px" y="0px"
	 height="100%" viewBox="0 0 1920 1920" enable-background="new 0 0 0 0" xml:space="preserve" preserveAspectRatio="xMidYMid meet">
<path fill="transparent" opacity="0.000000" stroke="none" 
	d="
M927.000000,1921.000000 
	C618.000000,1921.000000 309.500000,1921.000000 1.000000,1921.000000 
	C1.000000,1281.000000 1.000000,641.000000 1.000000,1.000000 
	C641.000000,1.000000 1281.000000,1.000000 1921.000000,1.000000 
	C1921.000000,641.000000 1921.000000,1281.000000 1921.000000,1921.000000 
	C1589.833374,1921.000000 1258.666626,1921.000000 927.000000,1921.000000 
M989.737061,626.959900 
	C978.739685,625.639893 967.747620,623.231567 956.744019,623.177002 
	C886.583984,622.829285 816.421387,623.000000 746.259644,623.000000 
	C744.637268,623.000000 743.014954,623.000000 741.363770,623.000000 
	C741.363770,817.241028 741.363770,1011.087708 741.363770,1204.633423 
	C765.133911,1204.633423 788.539673,1204.633423 812.334412,1204.633423 
	C812.334412,1128.864868 812.334412,1053.462769 812.334412,978.105469 
	C859.718689,978.105469 906.706970,978.105469 953.445740,978.105469 
	C962.242004,994.250366 970.976929,1010.188171 979.621399,1026.174805 
	C988.796631,1043.142944 997.858765,1060.172241 1007.019104,1077.148438 
	C1020.914917,1102.900391 1034.888184,1128.610718 1048.759644,1154.375732 
	C1057.221802,1170.093140 1065.492310,1185.914185 1074.045410,1201.581543 
	C1074.878784,1203.108154 1077.090332,1204.843994 1078.674561,1204.855835 
	C1105.278442,1205.057251 1131.884399,1204.999756 1158.869019,1204.999756 
	C1115.064331,1125.033081 1071.459229,1045.430664 1027.785156,965.702454 
	C1028.944824,965.074219 1029.895142,964.509399 1030.886719,964.029663 
	C1041.257202,959.011658 1051.982422,954.610962 1061.934448,948.869202 
	C1080.489380,938.163818 1095.621704,923.356567 1107.522339,905.682373 
	C1116.860474,891.813904 1123.448853,876.461365 1128.103882,860.263489 
	C1132.849976,843.748413 1135.246216,826.927979 1135.930542,809.857788 
	C1136.531006,794.872070 1135.491699,779.961792 1133.085693,765.104248 
	C1130.420410,748.646179 1125.777954,732.854553 1118.962891,717.678467 
	C1109.227051,695.998230 1095.069458,677.651428 1076.392944,663.022400 
	C1057.976929,648.597473 1037.344727,638.237366 1014.743591,632.092468 
	C1006.829651,629.940735 998.676208,628.670105 989.737061,626.959900 
M252.965652,738.615051 
	C255.464233,742.733704 257.871765,746.910828 260.476257,750.961365 
	C276.759644,776.285034 293.042328,801.609436 309.411957,826.877380 
	C327.361816,854.584534 345.387299,882.242798 363.435394,909.886047 
	C365.254669,912.672546 365.386597,915.176086 363.572235,917.980591 
	C359.553833,924.191895 355.699585,930.509277 351.693512,936.728638 
	C335.300507,962.178528 318.888397,987.616150 302.458801,1013.042480 
	C284.982483,1040.088623 267.457550,1067.103394 249.992081,1094.156494 
	C231.303497,1123.104126 212.665115,1152.084106 193.992401,1181.041992 
	C188.973038,1188.826050 183.908371,1196.580933 178.900314,1204.294067 
	C179.372040,1204.690308 179.483322,1204.865723 179.594925,1204.865967 
	C206.588165,1204.918457 233.581451,1204.977417 260.574615,1204.933838 
	C261.683929,1204.932007 263.272369,1204.271606 263.827942,1203.401245 
	C271.966034,1190.651245 279.951080,1177.803711 288.002747,1164.998413 
	C302.990784,1141.161499 317.962708,1117.314331 333.009674,1093.514648 
	C344.279541,1075.689331 355.707092,1057.963745 366.973724,1040.136597 
	C381.499023,1017.153503 395.887909,994.083984 410.497864,971.155090 
	C411.615662,969.400757 414.020416,968.466370 415.832031,967.147095 
	C421.291016,975.964783 425.944519,983.664612 430.776184,991.250977 
	C444.442017,1012.707764 458.281799,1034.054443 471.865173,1055.563110 
	C488.614166,1082.084351 505.160370,1108.733521 521.819275,1135.311768 
	C535.232361,1156.711670 548.716248,1178.067139 562.085571,1199.494141 
	C564.517517,1203.391846 567.225098,1205.340820 572.327881,1205.170044 
	C586.809875,1204.685181 601.318726,1205.000000 615.816956,1205.000000 
	C627.051208,1205.000000 638.285461,1205.000000 649.638062,1205.000000 
	C649.337158,1203.994873 649.281372,1203.326294 648.964905,1202.820923 
	C630.855042,1173.907349 612.737122,1144.998657 594.590454,1116.108032 
	C574.308044,1083.817139 554.051147,1051.509888 533.684875,1019.271912 
	C512.193542,985.252991 490.627411,951.280945 468.949127,917.381104 
	C467.271606,914.757874 467.701965,912.783081 469.053070,910.650513 
	C482.667999,889.160400 496.394531,867.740845 509.961334,846.220520 
	C524.715698,822.816467 539.288574,799.298096 554.025879,775.883240 
	C565.945618,756.944946 578.043945,738.119019 589.969727,719.184509 
	C607.802979,690.870789 625.562439,662.510620 643.330505,634.155884 
	C645.560608,630.596985 647.652527,626.951599 650.015564,623.000000 
	C622.769897,623.000000 596.273376,623.032349 569.777283,622.948486 
	C567.204285,622.940369 565.795654,623.605713 564.373901,625.975952 
	C558.333618,636.045471 551.874573,645.862366 545.678650,655.840088 
	C534.395996,674.009277 523.217896,692.243469 511.947937,710.420654 
	C498.212585,732.574341 484.408783,754.685669 470.670135,776.837341 
	C459.816010,794.338074 449.004456,811.865295 438.195251,829.393860 
	C431.361267,840.476013 424.628693,851.621399 417.716064,862.654114 
	C415.632446,865.979553 413.246765,865.921936 411.097900,862.580933 
	C406.572571,855.545166 402.207825,848.405945 397.796967,841.296875 
	C386.518585,823.119629 375.249512,804.936707 363.979492,786.754211 
	C350.249237,764.602600 336.523865,742.447937 322.792542,720.296997 
	C312.873749,704.296265 302.937134,688.306519 293.029785,672.298706 
	C283.469299,656.851440 273.925049,641.394043 264.404449,625.922241 
	C263.137207,623.862854 261.746490,622.884888 259.012939,622.902527 
	C233.517090,623.067139 208.019760,622.994690 182.522858,623.016968 
	C181.345306,623.017944 180.167969,623.266113 178.731796,623.428467 
	C181.103546,627.191223 183.124908,630.469238 185.215485,633.702576 
	C194.134064,647.496094 203.096771,661.261108 211.999146,675.065063 
	C225.523651,696.036133 239.011459,717.030884 252.965652,738.615051 
M1373.560303,1107.037842 
	C1365.728760,1098.884155 1357.540283,1091.040405 1350.138306,1082.513916 
	C1333.554443,1063.410522 1322.208008,1041.236450 1314.078735,1017.440491 
	C1308.762573,1001.878662 1304.679932,985.955566 1302.974243,969.509949 
	C1301.728760,957.500977 1299.479614,945.529297 1299.176880,933.503235 
	C1298.541626,908.277954 1298.155518,882.962402 1303.068359,858.021912 
	C1305.928467,843.502014 1308.806152,828.923889 1312.890259,814.721191 
	C1319.151245,792.947388 1329.721680,773.126343 1342.821777,754.634583 
	C1351.486328,742.403992 1361.526611,731.381714 1372.915771,721.769897 
	C1387.265503,709.659485 1403.415649,700.265686 1420.987915,693.531555 
	C1437.357544,687.258240 1454.331787,682.788757 1471.821533,682.237488 
	C1486.949707,681.760681 1502.201660,682.716003 1517.290405,684.166321 
	C1533.536865,685.728088 1549.104370,690.641296 1563.919678,697.503601 
	C1577.307129,703.704651 1589.562012,711.684326 1600.918823,721.241760 
	C1614.981201,733.075928 1626.164062,747.036743 1635.020020,763.030273 
	C1642.299805,776.177490 1646.945557,790.278870 1650.217773,804.892273 
	C1674.180786,804.892273 1697.826172,804.892273 1722.079346,804.892273 
	C1719.341919,794.125671 1717.151978,783.420715 1713.840088,773.074829 
	C1710.526367,762.723389 1706.572144,752.510986 1702.048462,742.626709 
	C1692.406006,721.558167 1679.476440,702.444885 1663.195679,686.067566 
	C1652.302002,675.109314 1640.145142,665.195007 1627.593018,656.145874 
	C1607.507324,641.665588 1585.027222,631.772339 1561.183716,624.943420 
	C1540.453979,619.006348 1519.369385,615.470764 1497.823853,615.048584 
	C1480.183838,614.703003 1462.489014,614.432007 1445.090454,618.052795 
	C1431.385132,620.904968 1417.400024,623.139832 1404.237915,627.676270 
	C1390.220947,632.507202 1376.433716,638.706787 1363.631470,646.170471 
	C1349.598633,654.351440 1335.910278,663.638794 1323.725342,674.328735 
	C1311.654419,684.918579 1300.956055,697.306335 1290.882080,709.887573 
	C1273.356201,731.775635 1260.652466,756.544495 1251.011841,782.842041 
	C1242.608154,805.765564 1236.494019,829.286072 1234.032959,853.627808 
	C1232.451294,869.270569 1230.454956,884.946960 1230.224365,900.631470 
	C1229.945068,919.620789 1231.117798,938.645630 1232.090698,957.633179 
	C1232.574463,967.072815 1233.157349,976.654785 1235.204224,985.835876 
	C1239.255859,1004.009399 1243.728271,1022.141418 1249.179810,1039.937378 
	C1256.085327,1062.480347 1266.978516,1083.367065 1279.785034,1103.071045 
	C1291.079224,1120.448120 1304.281860,1136.326050 1319.699707,1150.448242 
	C1334.683838,1164.173340 1351.033936,1175.706177 1368.815796,1185.323364 
	C1383.691040,1193.368652 1399.351562,1199.492798 1415.654541,1204.032104 
	C1434.358398,1209.239868 1453.393433,1212.494385 1472.780762,1212.884155 
	C1486.186401,1213.153564 1499.650635,1212.829590 1513.020264,1211.843994 
	C1523.836060,1211.046631 1534.662964,1209.407104 1545.286499,1207.190430 
	C1569.485474,1202.141846 1592.364502,1193.496826 1613.860962,1181.095337 
	C1627.698730,1173.112183 1640.786255,1164.092651 1652.193970,1153.033203 
	C1661.976562,1143.549072 1671.293091,1133.406006 1679.597168,1122.616577 
	C1692.087280,1106.387939 1702.303833,1088.608887 1708.903687,1069.121338 
	C1713.991699,1054.098389 1718.078003,1038.735962 1722.733032,1023.110535 
	C1697.949951,1023.110535 1674.302856,1023.110535 1650.426880,1023.110535 
	C1649.959229,1024.572144 1649.513672,1026.075195 1648.999023,1027.554077 
	C1645.007446,1039.028442 1642.027222,1050.993774 1636.774170,1061.859497 
	C1627.728027,1080.571533 1614.314697,1096.108887 1598.220581,1109.412842 
	C1586.388916,1119.193481 1573.351685,1127.057495 1559.312378,1132.693848 
	C1533.334473,1143.123413 1506.233154,1148.429199 1478.033203,1145.969727 
	C1468.774780,1145.162231 1459.468140,1144.465576 1450.321167,1142.909546 
	C1428.991821,1139.281128 1409.315918,1131.146484 1391.105713,1119.536377 
	C1385.255371,1115.806519 1379.727051,1111.571533 1373.560303,1107.037842 
z"/>
<path fill="#FFFFFF" opacity="1.000000" stroke="none" 
	d="
M990.184631,626.978516 
	C998.676208,628.670105 1006.829651,629.940735 1014.743591,632.092468 
	C1037.344727,638.237366 1057.976929,648.597473 1076.392944,663.022400 
	C1095.069458,677.651428 1109.227051,695.998230 1118.962891,717.678467 
	C1125.777954,732.854553 1130.420410,748.646179 1133.085693,765.104248 
	C1135.491699,779.961792 1136.531006,794.872070 1135.930542,809.857788 
	C1135.246216,826.927979 1132.849976,843.748413 1128.103882,860.263489 
	C1123.448853,876.461365 1116.860474,891.813904 1107.522339,905.682373 
	C1095.621704,923.356567 1080.489380,938.163818 1061.934448,948.869202 
	C1051.982422,954.610962 1041.257202,959.011658 1030.886719,964.029663 
	C1029.895142,964.509399 1028.944824,965.074219 1027.785156,965.702454 
	C1071.459229,1045.430664 1115.064331,1125.033081 1158.869019,1204.999756 
	C1131.884399,1204.999756 1105.278442,1205.057251 1078.674561,1204.855835 
	C1077.090332,1204.843994 1074.878784,1203.108154 1074.045410,1201.581543 
	C1065.492310,1185.914185 1057.221802,1170.093140 1048.759644,1154.375732 
	C1034.888184,1128.610718 1020.914917,1102.900391 1007.019104,1077.148438 
	C997.858765,1060.172241 988.796631,1043.142944 979.621399,1026.174805 
	C970.976929,1010.188171 962.242004,994.250366 953.445740,978.105469 
	C906.706970,978.105469 859.718689,978.105469 812.334412,978.105469 
	C812.334412,1053.462769 812.334412,1128.864868 812.334412,1204.633423 
	C788.539673,1204.633423 765.133911,1204.633423 741.363770,1204.633423 
	C741.363770,1011.087708 741.363770,817.241028 741.363770,623.000000 
	C743.014954,623.000000 744.637268,623.000000 746.259644,623.000000 
	C816.421387,623.000000 886.583984,622.829285 956.744019,623.177002 
	C967.747620,623.231567 978.739685,625.639893 990.184631,626.978516 
M1009.348877,900.968018 
	C1017.059448,896.311035 1025.500000,892.531067 1032.345093,886.834106 
	C1053.713745,869.049744 1062.384399,844.755920 1064.869385,817.944397 
	C1065.696655,809.019043 1065.643188,799.894104 1064.833496,790.965515 
	C1063.871338,780.355530 1062.557983,769.619019 1059.817993,759.358948 
	C1052.331299,731.324219 1034.809326,711.318665 1008.492615,699.197632 
	C988.443848,689.963501 966.952820,686.476624 945.193787,686.175476 
	C902.211365,685.580627 859.214966,686.000000 816.224304,686.000000 
	C814.938904,686.000000 813.653442,686.000000 812.196228,686.000000 
	C812.196228,762.145447 812.196228,837.872192 812.196228,914.000000 
	C826.839417,914.000000 841.290955,914.101807 855.740540,913.979065 
	C886.986816,913.713684 918.236633,913.549194 949.475037,912.877197 
	C959.732849,912.656677 970.118164,911.787354 980.155457,909.771973 
	C989.822021,907.830933 999.114380,904.026123 1009.348877,900.968018 
z"/>
<path fill="#FFFFFF" opacity="1.000000" stroke="none" 
	d="
M252.740265,738.315308 
	C239.011459,717.030884 225.523651,696.036133 211.999146,675.065063 
	C203.096771,661.261108 194.134064,647.496094 185.215485,633.702576 
	C183.124908,630.469238 181.103546,627.191223 178.731796,623.428467 
	C180.167969,623.266113 181.345306,623.017944 182.522858,623.016968 
	C208.019760,622.994690 233.517090,623.067139 259.012939,622.902527 
	C261.746490,622.884888 263.137207,623.862854 264.404449,625.922241 
	C273.925049,641.394043 283.469299,656.851440 293.029785,672.298706 
	C302.937134,688.306519 312.873749,704.296265 322.792542,720.296997 
	C336.523865,742.447937 350.249237,764.602600 363.979492,786.754211 
	C375.249512,804.936707 386.518585,823.119629 397.796967,841.296875 
	C402.207825,848.405945 406.572571,855.545166 411.097900,862.580933 
	C413.246765,865.921936 415.632446,865.979553 417.716064,862.654114 
	C424.628693,851.621399 431.361267,840.476013 438.195251,829.393860 
	C449.004456,811.865295 459.816010,794.338074 470.670135,776.837341 
	C484.408783,754.685669 498.212585,732.574341 511.947937,710.420654 
	C523.217896,692.243469 534.395996,674.009277 545.678650,655.840088 
	C551.874573,645.862366 558.333618,636.045471 564.373901,625.975952 
	C565.795654,623.605713 567.204285,622.940369 569.777283,622.948486 
	C596.273376,623.032349 622.769897,623.000000 650.015564,623.000000 
	C647.652527,626.951599 645.560608,630.596985 643.330505,634.155884 
	C625.562439,662.510620 607.802979,690.870789 589.969727,719.184509 
	C578.043945,738.119019 565.945618,756.944946 554.025879,775.883240 
	C539.288574,799.298096 524.715698,822.816467 509.961334,846.220520 
	C496.394531,867.740845 482.667999,889.160400 469.053070,910.650513 
	C467.701965,912.783081 467.271606,914.757874 468.949127,917.381104 
	C490.627411,951.280945 512.193542,985.252991 533.684875,1019.271912 
	C554.051147,1051.509888 574.308044,1083.817139 594.590454,1116.108032 
	C612.737122,1144.998657 630.855042,1173.907349 648.964905,1202.820923 
	C649.281372,1203.326294 649.337158,1203.994873 649.638062,1205.000000 
	C638.285461,1205.000000 627.051208,1205.000000 615.816956,1205.000000 
	C601.318726,1205.000000 586.809875,1204.685181 572.327881,1205.170044 
	C567.225098,1205.340820 564.517517,1203.391846 562.085571,1199.494141 
	C548.716248,1178.067139 535.232361,1156.711670 521.819275,1135.311768 
	C505.160370,1108.733521 488.614166,1082.084351 471.865173,1055.563110 
	C458.281799,1034.054443 444.442017,1012.707764 430.776184,991.250977 
	C425.944519,983.664612 421.291016,975.964783 415.832031,967.147095 
	C414.020416,968.466370 411.615662,969.400757 410.497864,971.155090 
	C395.887909,994.083984 381.499023,1017.153503 366.973724,1040.136597 
	C355.707092,1057.963745 344.279541,1075.689331 333.009674,1093.514648 
	C317.962708,1117.314331 302.990784,1141.161499 288.002747,1164.998413 
	C279.951080,1177.803711 271.966034,1190.651245 263.827942,1203.401245 
	C263.272369,1204.271606 261.683929,1204.932007 260.574615,1204.933838 
	C233.581451,1204.977417 206.588165,1204.918457 179.594925,1204.865967 
	C179.483322,1204.865723 179.372040,1204.690308 178.900314,1204.294067 
	C183.908371,1196.580933 188.973038,1188.826050 193.992401,1181.041992 
	C212.665115,1152.084106 231.303497,1123.104126 249.992081,1094.156494 
	C267.457550,1067.103394 284.982483,1040.088623 302.458801,1013.042480 
	C318.888397,987.616150 335.300507,962.178528 351.693512,936.728638 
	C355.699585,930.509277 359.553833,924.191895 363.572235,917.980591 
	C365.386597,915.176086 365.254669,912.672546 363.435394,909.886047 
	C345.387299,882.242798 327.361816,854.584534 309.411957,826.877380 
	C293.042328,801.609436 276.759644,776.285034 260.476257,750.961365 
	C257.871765,746.910828 255.464233,742.733704 252.740265,738.315308 
z"/>
<path fill="#FFFFFF" opacity="1.000000" stroke="none" 
	d="
M1373.805908,1107.302734 
	C1379.727051,1111.571533 1385.255371,1115.806519 1391.105713,1119.536377 
	C1409.315918,1131.146484 1428.991821,1139.281128 1450.321167,1142.909546 
	C1459.468140,1144.465576 1468.774780,1145.162231 1478.033203,1145.969727 
	C1506.233154,1148.429199 1533.334473,1143.123413 1559.312378,1132.693848 
	C1573.351685,1127.057495 1586.388916,1119.193481 1598.220581,1109.412842 
	C1614.314697,1096.108887 1627.728027,1080.571533 1636.774170,1061.859497 
	C1642.027222,1050.993774 1645.007446,1039.028442 1648.999023,1027.554077 
	C1649.513672,1026.075195 1649.959229,1024.572144 1650.426880,1023.110535 
	C1674.302856,1023.110535 1697.949951,1023.110535 1722.733032,1023.110535 
	C1718.078003,1038.735962 1713.991699,1054.098389 1708.903687,1069.121338 
	C1702.303833,1088.608887 1692.087280,1106.387939 1679.597168,1122.616577 
	C1671.293091,1133.406006 1661.976562,1143.549072 1652.193970,1153.033203 
	C1640.786255,1164.092651 1627.698730,1173.112183 1613.860962,1181.095337 
	C1592.364502,1193.496826 1569.485474,1202.141846 1545.286499,1207.190430 
	C1534.662964,1209.407104 1523.836060,1211.046631 1513.020264,1211.843994 
	C1499.650635,1212.829590 1486.186401,1213.153564 1472.780762,1212.884155 
	C1453.393433,1212.494385 1434.358398,1209.239868 1415.654541,1204.032104 
	C1399.351562,1199.492798 1383.691040,1193.368652 1368.815796,1185.323364 
	C1351.033936,1175.706177 1334.683838,1164.173340 1319.699707,1150.448242 
	C1304.281860,1136.326050 1291.079224,1120.448120 1279.785034,1103.071045 
	C1266.978516,1083.367065 1256.085327,1062.480347 1249.179810,1039.937378 
	C1243.728271,1022.141418 1239.255859,1004.009399 1235.204224,985.835876 
	C1233.157349,976.654785 1232.574463,967.072815 1232.090698,957.633179 
	C1231.117798,938.645630 1229.945068,919.620789 1230.224365,900.631470 
	C1230.454956,884.946960 1232.451294,869.270569 1234.032959,853.627808 
	C1236.494019,829.286072 1242.608154,805.765564 1251.011841,782.842041 
	C1260.652466,756.544495 1273.356201,731.775635 1290.882080,709.887573 
	C1300.956055,697.306335 1311.654419,684.918579 1323.725342,674.328735 
	C1335.910278,663.638794 1349.598633,654.351440 1363.631470,646.170471 
	C1376.433716,638.706787 1390.220947,632.507202 1404.237915,627.676270 
	C1417.400024,623.139832 1431.385132,620.904968 1445.090454,618.052795 
	C1462.489014,614.432007 1480.183838,614.703003 1497.823853,615.048584 
	C1519.369385,615.470764 1540.453979,619.006348 1561.183716,624.943420 
	C1585.027222,631.772339 1607.507324,641.665588 1627.593018,656.145874 
	C1640.145142,665.195007 1652.302002,675.109314 1663.195679,686.067566 
	C1679.476440,702.444885 1692.406006,721.558167 1702.048462,742.626709 
	C1706.572144,752.510986 1710.526367,762.723389 1713.840088,773.074829 
	C1717.151978,783.420715 1719.341919,794.125671 1722.079346,804.892273 
	C1697.826172,804.892273 1674.180786,804.892273 1650.217773,804.892273 
	C1646.945557,790.278870 1642.299805,776.177490 1635.020020,763.030273 
	C1626.164062,747.036743 1614.981201,733.075928 1600.918823,721.241760 
	C1589.562012,711.684326 1577.307129,703.704651 1563.919678,697.503601 
	C1549.104370,690.641296 1533.536865,685.728088 1517.290405,684.166321 
	C1502.201660,682.716003 1486.949707,681.760681 1471.821533,682.237488 
	C1454.331787,682.788757 1437.357544,687.258240 1420.987915,693.531555 
	C1403.415649,700.265686 1387.265503,709.659485 1372.915771,721.769897 
	C1361.526611,731.381714 1351.486328,742.403992 1342.821777,754.634583 
	C1329.721680,773.126343 1319.151245,792.947388 1312.890259,814.721191 
	C1308.806152,828.923889 1305.928467,843.502014 1303.068359,858.021912 
	C1298.155518,882.962402 1298.541626,908.277954 1299.176880,933.503235 
	C1299.479614,945.529297 1301.728760,957.500977 1302.974243,969.509949 
	C1304.679932,985.955566 1308.762573,1001.878662 1314.078735,1017.440491 
	C1322.208008,1041.236450 1333.554443,1063.410522 1350.138306,1082.513916 
	C1357.540283,1091.040405 1365.728760,1098.884155 1373.805908,1107.302734 
z"/>
<path fill="transparent" opacity="0.000000" stroke="none" 
	d="
M1008.960022,901.004089 
	C999.114380,904.026123 989.822021,907.830933 980.155457,909.771973 
	C970.118164,911.787354 959.732849,912.656677 949.475037,912.877197 
	C918.236633,913.549194 886.986816,913.713684 855.740540,913.979065 
	C841.290955,914.101807 826.839417,914.000000 812.196228,914.000000 
	C812.196228,837.872192 812.196228,762.145447 812.196228,686.000000 
	C813.653442,686.000000 814.938904,686.000000 816.224304,686.000000 
	C859.214966,686.000000 902.211365,685.580627 945.193787,686.175476 
	C966.952820,686.476624 988.443848,689.963501 1008.492615,699.197632 
	C1034.809326,711.318665 1052.331299,731.324219 1059.817993,759.358948 
	C1062.557983,769.619019 1063.871338,780.355530 1064.833496,790.965515 
	C1065.643188,799.894104 1065.696655,809.019043 1064.869385,817.944397 
	C1062.384399,844.755920 1053.713745,869.049744 1032.345093,886.834106 
	C1025.500000,892.531067 1017.059448,896.311035 1008.960022,901.004089 
z"/>
</svg>